:version 1.10
:name ASF
:units
  mass 1
  length 1
  angle deg
:documentation
  ASF file generated by Kaydara
:root
  axis xyz
  order  tx ty tz rx ry rz
  position 0 0 0
  orientation 0 0 0
:bonedata
  begin
    id 1
    name RightUpLegDummy
    direction -1 2.30186e-007 8.31532e-007
    length 4.04083
    axis 0 0 0 xyz
  end
  begin
    id 2
    name RightUpLeg
    direction -0.000919234 -0.999985 0.00544864
    length 17.4221
    axis -3.80308 -0.00076134 -0.0523649 xyz
    dof rx ry rz
  end
  begin
    id 3
    name RightLeg
    direction -0.000919271 -0.999984 -0.00555045
    length 17.1239
    axis 4.00314 0.0181274 -0.183583 xyz
    dof rx ry rz
  end
  begin
    id 4
    name RightFoot
    direction -2.57843e-005 -4.04509e-007 1
    length 6.72091
    axis 8.18909e-005 -0.122003 -0.403008 xyz
    dof rx ry rz
  end
  begin
    id 5
    name RightToes
    direction 0.00116825 -0.014069 0.9999
    length 3.85082
    axis 0.000514414 0.540638 -0.356797 xyz
    dof rx ry rz
  end
  begin
    id 6
    name SpineDummy
    direction 0.0168869 0.966876 -0.254689
    length 6.99894
    axis 0 0 0 xyz
  end
  begin
    id 7
    name Spine
    direction -0.0132008 0.999903 0.00446247
    length 11.1999
    axis -0.00148109 0.00725429 0.756411 xyz
    dof rx ry rz
  end
  begin
    id 8
    name Spine1
    direction 0 0 0
    length 0
    axis -0.000934958 0.0245693 1.46543 xyz
    dof rx ry rz
  end
  begin
    id 9
    name HEadDummy
    direction -0.0255732 0.999672 0.00128215
    length 3.43865
    axis -0.000934958 0.0245693 1.46543 xyz
  end
  begin
    id 10
    name HEad
    direction -0.0472656 0.980052 0.19304
    length 5.12695
    axis -0.000934954 0.0245693 1.46543 xyz
    dof rx ry rz
  end
  begin
    id 11
    name LeftShoulder1Dummy
    direction 0.953098 0.301717 -0.023914
    length 3.68488
    axis -0.000934958 0.0245693 1.46543 xyz
  end
  begin
    id 12
    name LeftShoulder1
    direction 0.962466 0.271167 0.0112566
    length 3.13809
    axis -0.000934958 0.0245693 1.46543 xyz
    dof rx ry rz
  end
  begin
    id 13
    name LeftArm
    direction 0.999943 0.00455037 -0.00961766
    length 11.3419
    axis -23.1648 0.685459 1.22814 xyz
    dof rx ry rz
  end
  begin
    id 14
    name LeftForeArm
    direction 0.999332 0.0131969 0.0340885
    length 8.70632
    axis -9.90633 0.618216 0.0826942 xyz
    dof rx ry rz
  end
  begin
    id 15
    name LeftHand
    direction 0.994373 -0.0366703 0.0993905
    length 5.32135
    axis 0.00675269 0.680415 0.445699 xyz
    dof rx ry rz
  end
  begin
    id 16
    name RightShoulderDummy
    direction -0.967298 0.252589 -0.0230903
    length 3.68488
    axis -0.000934958 0.0245693 1.46543 xyz
  end
  begin
    id 17
    name RightShoulder
    direction -0.975062 0.221602 0.0120823
    length 3.13809
    axis 0.216257 0.0246515 1.45863 xyz
    dof rx ry rz
  end
  begin
    id 18
    name RightArm
    direction -0.99886 -0.00851186 -0.0469687
    length 10.3947
    axis -23.196 0.23503 -0.532632 xyz
    dof rx ry rz
  end
  begin
    id 19
    name RightForeArm
    direction -0.99909 0.00114866 0.0426317
    length 8.68355
    axis -9.91764 -0.134943 0.610517 xyz
    dof rx ry rz
  end
  begin
    id 20
    name RightHand
    direction -0.992888 -0.0489538 0.10852
    length 5.28593
    axis -0.00275396 -0.197403 0.246414 xyz
    dof rx ry rz
  end
  begin
    id 21
    name LeftUpLegDummy
    direction 1 -2.30186e-007 -8.31532e-007
    length 4.04083
    axis 0 0 0 xyz
  end
  begin
    id 22
    name LeftUpLeg
    direction -0.000920097 -1 2.79241e-006
    length 17.4221
    axis -3.48782 0.00143434 -0.0532288 xyz
    dof rx ry rz
  end
  begin
    id 23
    name LeftLeg
    direction -0.000920097 -1 2.7912e-006
    length 17.1239
    axis 3.68162 -0.00806512 -0.0529896 xyz
    dof rx ry rz
  end
  begin
    id 24
    name LeftFoot
    direction -2.57845e-005 -3.987e-007 1
    length 6.72091
    axis 3.02372e-005 -0.00147829 -0.214229 xyz
    dof rx ry rz
  end
  begin
    id 25
    name LeftToes
    direction 0.00813577 -0.00488255 0.999955
    length 3.85048
    axis 3.89895e-005 -0.0014783 -0.214229 xyz
    dof rx ry rz
  end
:hierarchy
  begin
    root RightUpLegDummy SpineDummy LeftUpLegDummy
    RightUpLegDummy RightUpLeg
    RightUpLeg RightLeg
    RightLeg RightFoot
    RightFoot RightToes
    SpineDummy Spine
    Spine Spine1
    Spine1 HEadDummy LeftShoulder1Dummy RightShoulderDummy
    HEadDummy HEad
    LeftShoulder1Dummy LeftShoulder1
    LeftShoulder1 LeftArm
    LeftArm LeftForeArm
    LeftForeArm LeftHand
    RightShoulderDummy RightShoulder
    RightShoulder RightArm
    RightArm RightForeArm
    RightForeArm RightHand
    LeftUpLegDummy LeftUpLeg
    LeftUpLeg LeftLeg
    LeftLeg LeftFoot
    LeftFoot LeftToes
  end

:SAMPLES-PER-SECOND 30
:FULLY-SPECIFIED
:DEGREES
128
root  17.2879 33.7428 -26.2919 4.53882 -52.9411 7.45819
RightUpLeg  -20.8611 -12.6844 -5.66219
RightLeg  67.7616 -2.63466 -5.54903
RightFoot  19.5075 0.414509 -1.84161
RightToes  -36.506 -0.191191 -0.294547
Spine  -1.47855 1.0636 -1.65134
Spine1  -3.0206 2.32789 -2.5809
HEad  -64.5103 0.205282 2.95179
LeftShoulder1  -1.94126e-019 -3.10601e-018 -2.51263e-017
LeftArm  -21.3099 28.4818 -81.353
LeftForeArm  35.1147 -9.67761 -1.6919
LeftHand  -0.460408 -1.10317 8.37606
RightShoulder  -4.96962e-017 0 -2.36833e-017
RightArm  -24.0497 -18.8996 79.6638
RightForeArm  53.6284 14.7807 1.39037
RightHand  -0.263515 -2.03179 -8.87026
LeftUpLeg  -24.8749 -5.3357 -8.00905
LeftLeg  21.7589 16.3069 5.23347
LeftFoot  0.766998 -0.00183022 0.435047
LeftToes  -5.82617 1.34695e-006 1.12385e-007
129
root  16.4323 34.0217 -25.6663 5.56763 -51.8421 5.84128
RightUpLeg  -25.2809 -12.7735 -3.70734
RightLeg  70.6202 -2.52958 -6.09557
RightFoot  14.2939 0.252299 -1.4408
RightToes  -33.3336 -0.167537 -0.274454
Spine  -1.36355 0.844897 -1.31696
Spine1  -2.7889 1.81436 -1.91017
HEad  -64.4487 0.0241948 2.72024
LeftShoulder1  -1.94126e-019 -3.10601e-018 -2.51263e-017
LeftArm  -18.9311 26.784 -81.1303
LeftForeArm  33.401 -11.6634 -1.98102
LeftHand  -0.46439 -1.157 8.38219
RightShoulder  -4.96962e-017 0 -2.36833e-017
RightArm  -21.5565 -18.7581 79.362
RightForeArm  53.581 15.2 1.22741
RightHand  -0.267163 -2.00043 -8.91837
LeftUpLeg  -21.3702 -6.76545 -7.0663
LeftLeg  18.7778 16.9565 4.49563
LeftFoot  0.637112 -0.00121753 0.380602
LeftToes  -6.14655 1.34695e-006 1.12385e-007
130
root  15.5546 34.2496 -25.0683 6.5357 -50.7695 4.20623
RightUpLeg  -28.9799 -12.5274 -1.66828
RightLeg  70.1137 -2.47233 -5.8187
RightFoot  12.0989 0.181957 -1.14773
RightToes  -31.5166 -0.154503 -0.262367
Spine  -1.25967 0.701274 -0.954904
Spine1  -2.57523 1.49778 -1.19142
HEad  -64.0541 -0.303107 2.82619
LeftShoulder1  -1.94126e-019 -3.10601e-018 -2.51263e-017
LeftArm  -16.5823 25.6944 -80.9031
LeftForeArm  31.6185 -16.8442 -2.74056
LeftHand  -0.461241 -1.12263 8.36746
RightShoulder  -4.96962e-017 0 -2.36833e-017
RightArm  -20.1336 -18.8346 79.0305
RightForeArm  52.14 16.2713 1.20461
RightHand  -0.266413 -1.84703 -8.5251
LeftUpLeg  -17.8902 -6.45863 -6.26259
LeftLeg  15.8191 15.9781 3.3858
LeftFoot  0.285294 -0.000229411 0.253819
LeftToes  -5.95216 1.34695e-006 1.12385e-007
131
root  14.6789 34.3931 -24.4796 7.12845 -49.8685 3.01641
RightUpLeg  -31.8381 -12.0046 -0.0821075
RightLeg  66.7415 -2.60645 -5.24997
RightFoot  8.96555 0.102027 -0.736459
RightToes  -26.8185 -0.122638 -0.229257
Spine  -1.18694 0.552751 -0.655546
Spine1  -2.42217 1.18646 -0.594415
HEad  -63.4617 -0.457158 2.95542
LeftShoulder1  -1.94126e-019 -3.10601e-018 -2.51263e-017
LeftArm  -14.1517 24.6903 -80.5614
LeftForeArm  29.464 -21.8275 -3.40993
LeftHand  -0.443427 -1.09922 8.0766
RightShoulder  -4.96962e-017 0 -2.36833e-017
RightArm  -18.999 -18.6998 78.6215
RightForeArm  50.4096 17.6279 1.37183
RightHand  -0.252589 -1.76954 -7.90335
LeftUpLeg  -14.6205 -4.16257 -5.78245
LeftLeg  13.0594 13.3613 2.18376
LeftFoot  -0.213758 -8.76041e-005 0.114443
LeftToes  -5.99259 1.34695e-006 1.12385e-007
132
root  13.8307 34.4529 -23.868 7.38381 -48.6923 2.43253
RightUpLeg  -33.6463 -11.9474 0.767053
RightLeg  60.2076 -3.07716 -4.73116
RightFoot  6.36317 0.0559289 -0.44525
RightToes  -25.844 -0.116374 -0.222068
Spine  -1.15877 0.283237 -0.445562
Spine1  -2.36095 0.64177 -0.176974
HEad  -63.0889 -0.498925 3.12646
LeftShoulder1  -1.94126e-019 -3.10601e-018 -2.51263e-017
LeftArm  -12.1727 23.4943 -80.1739
LeftForeArm  28.1587 -25.8128 -4.03264
LeftHand  -0.431592 -1.21102 7.74024
RightShoulder  -4.96962e-017 0 -2.36833e-017
RightArm  -18.0154 -18.2196 78.1649
RightForeArm  49.7925 19.0367 1.63691
RightHand  -0.240234 -1.68131 -7.33466
LeftUpLeg  -11.9334 -4.37013 -5.36774
LeftLeg  11.4061 12.5332 1.68437
LeftFoot  -0.768596 -0.00114622 -0.00938035
LeftToes  -6.63025 1.34695e-006 1.12385e-007
133
root  12.9498 34.4415 -23.2337 7.44254 -47.3488 1.9022
RightUpLeg  -33.7567 -12.2252 1.29848
RightLeg  50.1977 -3.89629 -4.14536
RightFoot  5.80824 0.0484969 -0.395678
RightToes  -27.8419 -0.129346 -0.23669
Spine  -1.04748 0.0113131 -0.232481
Spine1  -2.13758 0.101727 0.240746
HEad  -62.9755 -0.67241 3.36799
LeftShoulder1  -1.94126e-019 -3.10601e-018 -2.51263e-017
LeftArm  -10.2982 21.9402 -79.8305
LeftForeArm  28.0753 -28.7919 -4.66408
LeftHand  -0.436783 -1.27678 7.75969
RightShoulder  -4.96962e-017 0 -2.36833e-017
RightArm  -17.3654 -17.3713 77.7015
RightForeArm  49.294 20.3686 1.90579
RightHand  -0.231738 -1.70561 -7.10917
LeftUpLeg  -9.42689 -5.85643 -4.95665
LeftLeg  10.5381 12.9635 1.54362
LeftFoot  -1.92454 -0.00750214 -0.285116
LeftToes  -5.7984 1.34695e-006 1.12385e-007
134
root  11.9989 34.3647 -22.5633 7.23747 -46.4053 1.6278
RightUpLeg  -32.1053 -11.9825 1.34009
RightLeg  37.165 -3.74433 -2.49193
RightFoot  7.64323 0.0659455 -0.430638
RightToes  -28.0518 -0.130738 -0.2382
Spine  -0.905386 -0.0876005 -0.0999829
Spine1  -1.85281 -0.0927036 0.493595
HEad  -63.0044 -1.0356 3.73227
LeftShoulder1  -1.94126e-019 -3.10601e-018 -2.51263e-017
LeftArm  -8.46694 20.2622 -79.5003
LeftForeArm  28.2389 -30.8848 -5.14332
LeftHand  -0.450124 -1.27619 7.99299
RightShoulder  -4.96962e-017 0 -2.36833e-017
RightArm  -16.7729 -16.3232 77.3109
RightForeArm  48.1764 21.8319 2.23151
RightHand  -0.217986 -1.85484 -6.93269
LeftUpLeg  -6.96912 -6.86336 -4.7446
LeftLeg  10.2088 13.2837 1.50447
LeftFoot  -3.56703 -0.0264527 -0.687965
LeftToes  -4.76731 1.34695e-006 1.12385e-007
135
root  10.983 34.2223 -21.8364 7.03 -45.9137 1.60404
RightUpLeg  -29.3333 -11.2698 0.998799
RightLeg  22.382 -1.58667 -0.540308
RightFoot  8.83908 0.0501668 -0.10666
RightToes  -25.3998 -0.11356 -0.218757
Spine  -0.948609 -0.0813848 0.0129799
Spine1  -1.93312 -0.0763305 0.715987
HEad  -62.3407 -1.37007 3.88602
LeftShoulder1  -1.94126e-019 -3.10601e-018 -2.51263e-017
LeftArm  -7.48927 19.2785 -79.3943
LeftForeArm  28.4218 -32.4084 -5.50381
LeftHand  -0.456995 -1.38352 7.99266
RightShoulder  -4.96962e-017 0 -2.36833e-017
RightArm  -16.1994 -15.4074 76.9204
RightForeArm  47.3033 23.7209 2.64095
RightHand  -0.208806 -1.84296 -6.60646
LeftUpLeg  -4.83118 -7.3111 -4.70302
LeftLeg  10.5321 13.3117 1.58297
LeftFoot  -5.55056 -0.064232 -1.16343
LeftToes  -4.57679 1.34695e-006 1.12385e-007
136
root  9.87174 34.0398 -21.1224 7.84711 -45.4235 0.573714
RightUpLeg  -26.655 -10.0718 1.27501
RightLeg  10.0918 1.51286 0.170893
RightFoot  10.1225 0.0110929 0.400619
RightToes  -23.2745 -0.100455 -0.202614
Spine  -1.25849 -0.0292181 0.391264
Spine1  -2.54055 0.0453511 1.47275
HEad  -60.6326 -1.87356 3.91057
LeftShoulder1  -1.94126e-019 -3.10601e-018 -2.51263e-017
LeftArm  -6.72272 19.112 -79.5911
LeftForeArm  28.2079 -33.4874 -5.78754
LeftHand  -0.449881 -1.26522 8.00107
RightShoulder  -4.96962e-017 0 -2.36833e-017
RightArm  -15.0449 -14.494 76.278
RightForeArm  46.4278 25.3076 3.00084
RightHand  -0.191319 -1.97559 -6.24202
LeftUpLeg  -3.83124 -6.79769 -3.71227
LeftLeg  12.7439 12.356 1.95296
LeftFoot  -7.97301 -0.123314 -1.60778
LeftToes  -6.45408 1.34695e-006 1.12385e-007
137
root  8.68016 33.8019 -20.4305 8.92998 -44.7582 -1.38824
RightUpLeg  -24.4241 -8.21693 2.02279
RightLeg  5.79051 1.43148 0.0537278
RightFoot  16.016 0.000209638 0.526523
RightToes  -26.4768 -0.120427 -0.226748
Spine  -1.489 0.0351085 0.977835
Spine1  -2.98355 0.208609 2.63661
HEad  -58.3962 -2.47069 4.0075
LeftShoulder1  -1.94126e-019 -3.10601e-018 -2.51263e-017
LeftArm  -6.16816 18.9961 -80.0202
LeftForeArm  28.2027 -34.043 -5.9333
LeftHand  -0.451703 -1.33918 7.95042
RightShoulder  -4.96962e-017 0 -2.36833e-017
RightArm  -14.0752 -12.9641 75.6669
RightForeArm  45.8204 26.3208 3.23734
RightHand  -0.178769 -1.99114 -5.8332
LeftUpLeg  -3.56844 -6.65532 -1.9268
LeftLeg  17.2949 11.6638 2.80043
LeftFoot  -11.2572 -0.235071 -2.22329
LeftToes  -6.69524 1.34695e-006 1.12385e-007
138
root  7.47625 33.574 -19.8474 11.1179 -44.4993 -5.29386
RightUpLeg  -24.3128 -5.23123 4.37038
RightLeg  10.8879 -1.5007 -0.188688
RightFoot  14.6301 0.0993995 -0.230596
RightToes  -24.3784 -0.107187 -0.21106
Spine  -1.50074 0.306924 2.04555
Spine1  -2.96186 0.804258 4.74418
HEad  -56.5943 -2.89061 4.11531
LeftShoulder1  -1.94126e-019 -3.10601e-018 -2.51263e-017
LeftArm  -7.06888 18.8036 -81.3512
LeftForeArm  29.1376 -34.2776 -5.94405
LeftHand  -0.440672 -1.40419 7.69072
RightShoulder  -4.96962e-017 0 -2.36833e-017
RightArm  -13.7748 -10.1352 74.8967
RightForeArm  45.7156 26.1594 3.20795
RightHand  -0.190977 -1.90876 -6.11957
LeftUpLeg  -3.96759 -4.86567 1.58525
LeftLeg  23.417 10.1329 3.60801
LeftFoot  -14.3285 -0.339973 -2.54271
LeftToes  -7.67618 1.34695e-006 1.12385e-007
139
root  6.37921 33.5163 -19.2922 13.0167 -45.5 -8.74221
RightUpLeg  -25.0213 -3.41657 6.84155
RightLeg  17.232 -1.69948 -0.41015
RightFoot  10.916 0.0683093 -0.171289
RightToes  -22.4759 -0.0956866 -0.196425
Spine  -1.24338 0.850512 3.02436
Spine1  -2.37305 1.91384 6.6807
HEad  -55.3266 -2.60694 3.95221
LeftShoulder1  -1.94126e-019 -3.10601e-018 -2.51263e-017
LeftArm  -10.1641 18.6947 -83.5411
LeftForeArm  30.2329 -33.5765 -5.70624
LeftHand  -0.47538 -1.28379 8.42429
RightShoulder  -4.96962e-017 0 -2.36833e-017
RightArm  -14.0268 -6.04639 74.5262
RightForeArm  45.5147 25.597 3.1035
RightHand  -0.183705 -2.34662 -6.65334
LeftUpLeg  -5.28352 -1.41796 4.73085
LeftLeg  31.1025 8.49017 4.37542
LeftFoot  -13.7354 -0.276347 -2.13262
LeftToes  -14.4921 1.34695e-006 1.12385e-007
